<svg viewBox="0 0 415 168" fill="none" xmlns="http://www.w3.org/2000/svg">
<path d="M76.224 148.8C75.712 148.8 75.136 148.672 74.496 148.416C73.856 148.032 73.216 147.648 72.576 147.264L5.568 101.568C3.776 100.288 2.368 99.072 1.344 97.92C0.448 96.64 0 95.04 0 93.12V87.936C0 86.016 0.448 84.48 1.344 83.328C2.368 82.048 3.776 80.768 5.568 79.488L72.576 33.792C73.216 33.536 73.856 33.28 74.496 33.024C75.136 32.64 75.712 32.448 76.224 32.448C77.248 32.448 78.144 32.832 78.912 33.6C79.68 34.24 80.064 35.136 80.064 36.288V53.952C80.064 55.744 79.552 57.216 78.528 58.368C77.504 59.392 76.352 60.288 75.072 61.056L30.72 90.624L75.072 120.192C76.352 120.96 77.504 121.856 78.528 122.88C79.552 123.904 80.064 125.376 80.064 127.296V144.768C80.064 146.048 79.68 147.072 78.912 147.84C78.144 148.48 77.248 148.8 76.224 148.8Z" fill="#D83850"/>
<path d="M110.931 150.912C109.523 150.912 108.371 150.464 107.475 149.568C106.579 148.672 106.131 147.52 106.131 146.112V21.312C106.131 19.904 106.579 18.752 107.475 17.856C108.371 16.96 109.523 16.512 110.931 16.512H161.811C177.811 16.512 190.419 20.224 199.635 27.648C208.851 34.944 213.459 45.504 213.459 59.328C213.459 68.672 211.219 76.48 206.739 82.752C202.259 89.024 196.243 93.696 188.691 96.768L215.763 144.768C216.147 145.536 216.339 146.24 216.339 146.88C216.339 147.904 215.955 148.864 215.187 149.76C214.419 150.528 213.459 150.912 212.307 150.912H190.995C188.691 150.912 186.963 150.336 185.811 149.184C184.659 147.904 183.827 146.752 183.315 145.728L159.891 101.76H136.659V146.112C136.659 147.52 136.211 148.672 135.315 149.568C134.419 150.464 133.267 150.912 131.859 150.912H110.931ZM136.659 77.376H161.235C168.275 77.376 173.459 75.776 176.787 72.576C180.243 69.376 181.971 64.896 181.971 59.136C181.971 53.376 180.307 48.832 176.979 45.504C173.651 42.176 168.403 40.512 161.235 40.512H136.659V77.376Z" fill="#D83850"/>
<path d="M231.438 167.04C230.286 167.04 229.326 166.592 228.558 165.696C227.79 164.928 227.406 164.032 227.406 163.008C227.406 162.368 227.534 161.728 227.79 161.088L293.07 4.416C293.454 3.392 294.094 2.432 294.99 1.53599C296.014 0.511997 297.486 0 299.406 0H314.19C315.342 0 316.302 0.447998 317.07 1.34399C317.838 2.11199 318.222 3.00799 318.222 4.03199C318.222 4.54399 318.094 5.18399 317.838 5.95199L252.366 162.624C251.982 163.52 251.278 164.48 250.254 165.504C249.358 166.528 247.886 167.04 245.838 167.04H231.438Z" fill="#D83850"/>
<path d="M338.667 148.8C337.643 148.8 336.747 148.48 335.979 147.84C335.211 147.072 334.827 146.048 334.827 144.768V127.296C334.827 125.376 335.339 123.904 336.363 122.88C337.387 121.856 338.539 120.96 339.819 120.192L384.171 90.624L339.819 61.056C338.539 60.288 337.387 59.392 336.363 58.368C335.339 57.216 334.827 55.744 334.827 53.952V36.288C334.827 35.136 335.211 34.24 335.979 33.6C336.747 32.832 337.643 32.448 338.667 32.448C339.307 32.448 339.947 32.64 340.587 33.024C341.227 33.28 341.803 33.536 342.315 33.792L409.323 79.488C411.243 80.768 412.651 82.048 413.547 83.328C414.443 84.48 414.891 86.016 414.891 87.936V93.12C414.891 95.04 414.443 96.64 413.547 97.92C412.651 99.072 411.243 100.288 409.323 101.568L342.315 147.264C341.803 147.648 341.227 148.032 340.587 148.416C339.947 148.672 339.307 148.8 338.667 148.8Z" fill="#D83850"/>
</svg>
